<svg viewBox="0 0 1024 1024" version="1.1" xmlns="http://www.w3.org/2000/svg" width="200" height="200">
  <path
    d="M915.2 578.133333l-174.933333-115.2c0-2.133333 2.133333-6.4 2.133333-10.666666v-168.533334c0-23.466667-19.2-42.666667-42.666667-42.666666h-113.066666l-8.533334-153.6c0-10.666667-10.666667-19.2-21.333333-19.2h-110.933333c-10.666667 0-21.333333 8.533333-21.333334 19.2l-8.533333 153.6h-113.066667c-23.466667 0-42.666667 19.2-42.666666 42.666666v168.533334c0 4.266667 0 6.4 2.133333 10.666666l-174.933333 115.2c-19.2 12.8-25.6 38.4-17.066667 57.6l96 221.866667-85.333333 49.066667c-10.666667 6.4-14.933333 19.2-8.533334 29.866666 4.266667 6.4 10.666667 10.666667 19.2 10.666667 4.266667 0 6.4 0 10.666667-2.133333l153.6-85.333334c14.933333-8.533333 40.533333-8.533333 55.466667-2.133333l142.933333 68.266667c27.733333 12.8 68.266667 12.8 96 0l132.266667-68.266667c14.933333-8.533333 42.666667-8.533333 55.466666 0l102.4 53.333333c10.666667 6.4 23.466667 2.133333 27.733334-8.533333 6.4-10.666667 2.133333-23.466667-8.533334-27.733333l-25.6-12.8L930.133333 640c10.666667-23.466667 4.266667-49.066667-14.933333-61.866667z m-448-467.2h70.4l6.4 130.133334h-83.2l6.4-130.133334z m-164.266667 172.8h396.8v151.466667l-64-40.533333-104.533333-68.266667c-17.066667-10.666667-42.666667-10.666667-59.733333 0l-104.533334 68.266667-64 42.666666v-153.6z m494.933334 554.666667l-38.4-19.2c-27.733333-14.933333-68.266667-14.933333-96 0l-132.266667 68.266667c-14.933333 8.533333-42.666667 8.533333-57.6 0l-142.933333-68.266667c-27.733333-12.8-68.266667-12.8-96 2.133333l-29.866667 17.066667-53.333333-123.733333 343.466666-230.4c2.133333-2.133333 8.533333-2.133333 10.666667 0l345.6 230.4-53.333333 123.733333z m70.4-164.266667L531.2 448c-17.066667-10.666667-42.666667-10.666667-59.733333 0L134.4 674.133333 108.8 618.666667c0-2.133333 0-4.266667 2.133333-4.266667l279.466667-183.466667 104.533333-68.266666c2.133333-2.133333 10.666667-2.133333 12.8 0l104.533334 68.266666 279.466666 183.466667c2.133333 0 2.133333 4.266667 2.133334 4.266667l-25.6 55.466666zM921.6 964.266667c-17.066667 0-32-14.933333-32-32s14.933333-32 32-32 32 14.933333 32 32-14.933333 32-32 32z">
  </path>
</svg>
